<svg width="560" height="640" viewBox="0 0 560 640" fill="none" xmlns="http://www.w3.org/2000/svg">
<circle cx="354.5" cy="415.5" r="139.5" fill="#F7C931"/>
<circle cx="231.5" cy="213.5" r="158.5" fill="#3DCC3D"/>
<path fill-rule="evenodd" clip-rule="evenodd" d="M376.451 277.717C351.808 333.26 296.178 372 231.5 372C228.313 372 225.148 371.906 222.008 371.72C240.369 316.123 292.749 276 354.5 276C361.969 276 369.3 276.587 376.451 277.717Z" fill="#00AB00"/>
<circle cx="223" cy="539" r="67" fill="#FFAA00"/>
<path fill-rule="evenodd" clip-rule="evenodd" d="M290 539.225C262.133 524.668 239.797 500.973 226.967 472.115C262.123 474.168 290 503.329 290 539C290 539.075 290 539.15 290 539.225Z" fill="#FF8000"/>
<path d="M246.423 285.544C239.574 282.406 232.867 278.71 226.494 274.558C200.478 257.607 179.885 233.284 166.941 204.216C164.71 199.206 162.702 194.018 160.975 188.806C157.38 177.974 158.088 165.951 162.913 155.816C167.714 145.734 176.352 138.024 186.627 134.63C193.515 132.403 200.642 136.445 202.774 143.317L213.621 178.237C214.67 181.622 214.407 185.204 212.878 188.331C211.349 191.462 208.739 193.756 205.527 194.802L197.907 197.274C207.834 216.766 222.237 233.301 239.858 245.418L247.51 232.467C249.273 229.483 252.056 227.41 255.341 226.639C258.619 225.892 262.048 226.506 264.91 228.394L294.678 247.994C297.56 249.89 299.581 252.833 300.37 256.29C301.162 259.743 300.623 263.287 298.861 266.275L297.009 269.407C290.992 279.587 281.023 286.575 269.669 288.578C261.82 289.961 253.783 288.911 246.423 285.544Z" fill="white"/>
<path fill-rule="evenodd" clip-rule="evenodd" d="M207.276 512L208 512C209.657 512 211 513.343 211 515C211 516.657 209.657 518 208 518H207.4C204.83 518 203.083 518.002 201.733 518.113C200.418 518.22 199.745 518.415 199.276 518.654C198.147 519.229 197.229 520.147 196.654 521.276C196.415 521.745 196.22 522.418 196.113 523.733C196.002 525.083 196 526.83 196 529.4V530C196 531.657 194.657 533 193 533C191.343 533 190 531.657 190 530L190 529.276V529.276C190 526.861 190 524.868 190.133 523.245C190.27 521.558 190.566 520.008 191.308 518.552C192.458 516.294 194.294 514.458 196.552 513.308C198.008 512.566 199.558 512.27 201.245 512.133C202.868 512 204.861 512 207.276 512H207.276ZM208 530C206.343 530 205 531.343 205 533C205 534.657 206.343 536 208 536H238C239.657 536 241 534.657 241 533C241 531.343 239.657 530 238 530H208ZM208 542C206.343 542 205 543.343 205 545C205 546.657 206.343 548 208 548H229C230.657 548 232 546.657 232 545C232 543.343 230.657 542 229 542H208ZM208 566L207.276 566C204.861 566 202.868 566 201.245 565.867C199.558 565.73 198.008 565.434 196.552 564.692C194.294 563.542 192.458 561.706 191.308 559.448C190.566 557.992 190.27 556.442 190.133 554.755C190 553.132 190 551.139 190 548.724V548.724L190 548C190 546.343 191.343 545 193 545C194.657 545 196 546.343 196 548V548.6C196 551.17 196.002 552.917 196.113 554.267C196.22 555.582 196.415 556.255 196.654 556.724C197.229 557.853 198.147 558.771 199.276 559.346C199.745 559.585 200.418 559.78 201.733 559.887C203.083 559.998 204.83 560 207.4 560H208C209.657 560 211 561.343 211 563C211 564.657 209.657 566 208 566ZM238.724 512L238 512C236.343 512 235 513.343 235 515C235 516.657 236.343 518 238 518H238.6C241.17 518 242.917 518.002 244.267 518.113C245.582 518.22 246.255 518.415 246.724 518.654C247.853 519.229 248.771 520.147 249.346 521.276C249.585 521.745 249.78 522.418 249.887 523.733C249.998 525.083 250 526.83 250 529.4V530C250 531.657 251.343 533 253 533C254.657 533 256 531.657 256 530V529.276C256 526.861 256 524.868 255.867 523.245C255.73 521.558 255.434 520.008 254.692 518.552C253.542 516.294 251.706 514.458 249.448 513.308C247.992 512.566 246.442 512.27 244.755 512.133C243.132 512 241.139 512 238.724 512H238.724ZM238 566L238.724 566C241.139 566 243.132 566 244.755 565.867C246.442 565.73 247.992 565.434 249.448 564.692C251.706 563.542 253.542 561.706 254.692 559.448C255.434 557.992 255.73 556.442 255.867 554.755C256 553.132 256 551.139 256 548.724V548C256 546.343 254.657 545 253 545C251.343 545 250 546.343 250 548V548.6C250 551.17 249.998 552.917 249.887 554.267C249.78 555.582 249.585 556.255 249.346 556.724C248.771 557.853 247.853 558.771 246.724 559.346C246.255 559.585 245.582 559.78 244.267 559.887C242.917 559.998 241.17 560 238.6 560H238C236.343 560 235 561.343 235 563C235 564.657 236.343 566 238 566Z" fill="white"/>
</svg>
